<svg xmlns="http://www.w3.org/2000/svg" width="22.319" height="25.781" viewBox="0 0 22.319 25.781">
  <g id="Group_106827" data-name="Group 106827" transform="translate(-175.557 -315.165)">
    <path id="Path_75606" data-name="Path 75606" d="M252.571,0a5.808,5.808,0,0,0-3.76,2.036,5.044,5.044,0,0,0-1.231,3.92,4.9,4.9,0,0,0,3.794-1.938A5.446,5.446,0,0,0,252.571,0Z" transform="translate(-61.298 315.696)" fill="none" stroke="#7e7e7e" stroke-width="1"/>
    <path id="Path_75607" data-name="Path 75607" d="M57.76,122.351a6.265,6.265,0,0,0-4.729-2.511c-2.22,0-3.159,1.063-4.7,1.063-1.59,0-2.8-1.06-4.718-1.06a6.419,6.419,0,0,0-5.166,3.123c-1.79,2.775-1.483,7.993,1.417,12.437,1.038,1.59,2.424,3.378,4.237,3.394,1.613.015,2.068-1.035,4.254-1.046s2.6,1.06,4.211,1.043c1.814-.014,3.276-2,4.314-3.586a17.833,17.833,0,0,0,1.6-3A5.457,5.457,0,0,1,57.76,122.351Z" transform="translate(138.727 201.649)" fill="none" stroke="#7e7e7e" stroke-width="1"/>
  </g>
</svg>
