<svg xmlns="http://www.w3.org/2000/svg" width="25.898" height="24.198" viewBox="0 0 25.898 24.198">
  <g id="cash-payment" transform="translate(0 494.926)">
    <path id="Path_75695" data-name="Path 75695" d="M117.92-494.828a7.36,7.36,0,0,0-5.949,6,7.335,7.335,0,0,0-.081,1.24,6.623,6.623,0,0,0,.739,3.175,7.284,7.284,0,0,0,5.139,3.97,5.834,5.834,0,0,0,1.418.111,6.381,6.381,0,0,0,2.329-.354,7.4,7.4,0,0,0,4.891-5.737,8.9,8.9,0,0,0-.005-2.4,7.345,7.345,0,0,0-5.99-6A8.217,8.217,0,0,0,117.92-494.828Zm2.329.734a6.63,6.63,0,0,1,5.4,5.336,8.012,8.012,0,0,1-.02,2.359,6.584,6.584,0,0,1-5.225,5.225,8.142,8.142,0,0,1-2.43,0,6.668,6.668,0,0,1-4.7-3.6,8.118,8.118,0,0,1-.527-1.62,8.011,8.011,0,0,1-.02-2.359,6.634,6.634,0,0,1,3.6-4.754,6.792,6.792,0,0,1,1.767-.577A8.311,8.311,0,0,1,120.249-494.094Z" transform="translate(-106.224)" fill="#7e7e7e"/>
    <path id="Path_75696" data-name="Path 75696" d="M195.3-460.813a5.416,5.416,0,0,0-2.187.9.359.359,0,0,0,.263.6,1.13,1.13,0,0,0,.405-.152,4.919,4.919,0,0,1,3.843-.446,5,5,0,0,1,2.785,2.238,4.848,4.848,0,0,1,.005,4.734c-.238.415-.253.567-.071.749a.257.257,0,0,0,.284.1.583.583,0,0,0,.223-.086,6.74,6.74,0,0,0,.759-1.691,6.638,6.638,0,0,0,.122-2.258,5.58,5.58,0,0,0-1.478-3.013A5.586,5.586,0,0,0,195.3-460.813Z" transform="translate(-183.251 -32.319)" fill="#7e7e7e"/>
    <path id="Path_75697" data-name="Path 75697" d="M222.566-425.873c-.076.076-.1.167-.1.38,0,.258-.01.278-.137.309a1.536,1.536,0,0,0-1.119,1.443c-.041.663.213,1.048.947,1.438l.284.152.015,1.124.01,1.129h-.147a1.622,1.622,0,0,1-.491-.177,1.667,1.667,0,0,0-.456-.177.379.379,0,0,0-.208.648,2.389,2.389,0,0,0,.962.435l.314.066.015.284c.01.238.035.3.147.39a.294.294,0,0,0,.446-.015c.111-.091.137-.172.162-.43s.046-.314.111-.314a1.773,1.773,0,0,0,.861-.537,1.717,1.717,0,0,0,.481-1.261,1.406,1.406,0,0,0-.42-1.1,2.054,2.054,0,0,0-.881-.521l-.137-.035v-.906a5.772,5.772,0,0,1,.035-.906,2.122,2.122,0,0,1,.3.152,1.214,1.214,0,0,0,.385.152.377.377,0,0,0,.329-.41c-.02-.218-.339-.471-.754-.592-.284-.081-.3-.1-.3-.243a.681.681,0,0,0-.2-.527A.4.4,0,0,0,222.566-425.873Zm-.1,2.152a4.093,4.093,0,0,1-.03.684,1.053,1.053,0,0,1-.425-.3,1.047,1.047,0,0,1,.02-.678c.066-.157.3-.385.39-.385A2.612,2.612,0,0,1,222.464-423.721Zm1.043,2.005a.83.83,0,0,1,.395.754,1.08,1.08,0,0,1-.613.982c-.051.03-.066-.167-.066-.9,0-.668.015-.942.056-.942A.641.641,0,0,1,223.507-421.716Z" transform="translate(-209.857 -65.461)" fill="#7e7e7e"/>
    <path id="Path_75698" data-name="Path 75698" d="M147.628-419.787a6.113,6.113,0,0,0-.921,1.954,4.33,4.33,0,0,0-.106,1.327,4.165,4.165,0,0,0,.132,1.428,5.634,5.634,0,0,0,6.775,4.01,5.542,5.542,0,0,0,1.757-.795c.425-.284.506-.466.314-.714-.157-.2-.344-.172-.795.121a4.818,4.818,0,0,1-6.937-1.848,4.461,4.461,0,0,1-.5-2.44,4.483,4.483,0,0,1,.795-2.451,1.1,1.1,0,0,0,.218-.461.338.338,0,0,0-.375-.344C147.81-420,147.765-419.975,147.628-419.787Z" transform="translate(-139.177 -71.132)" fill="#7e7e7e"/>
    <path id="Path_75699" data-name="Path 75699" d="M.759-241.924a1.147,1.147,0,0,0-.663.608c-.091.192-.1.456-.1,4.734,0,3.008.02,4.6.056,4.724a1.128,1.128,0,0,0,.577.648c.177.081.349.1,1.306.1,1.2,0,1.342-.025,1.62-.294a1.08,1.08,0,0,0,.334-.851l.03-.41,2.137.957c2.248,1.008,2.527,1.1,3.195,1.1.2,0,1.787-.137,3.519-.3,6.1-.592,5.807-.557,6.44-.871.375-.192,6.076-3.9,6.268-4.081a1.836,1.836,0,0,0,.278-.415,1.216,1.216,0,0,0,.137-.684,1.437,1.437,0,0,0-.446-1.129,1.338,1.338,0,0,0-1.134-.44h-.461l-2.375,1.175c-2.38,1.18-2.78,1.347-3.6,1.5-.678.132-.648.147-.673-.314a2.286,2.286,0,0,0-1.5-1.934,18.051,18.051,0,0,0-2.451-.354c-1.205-.142-2.349-.289-2.547-.329a5.856,5.856,0,0,1-1.625-.739,7.725,7.725,0,0,0-4.152-1.144L3.9-240.7v-.2a1.142,1.142,0,0,0-.78-1.028A9.2,9.2,0,0,0,.759-241.924Zm2.248.79.132.1v5.164l.127.122a.324.324,0,0,0,.506,0l.127-.122v-4.071l1,.03a7.016,7.016,0,0,1,2.425.395,8.306,8.306,0,0,1,1.61.785,5.858,5.858,0,0,0,1.808.729c.172.03,1.276.162,2.446.3a8.835,8.835,0,0,1,2.38.375,1.536,1.536,0,0,1,.876,1.286l.02.309-.218.03c-.122.015-1.357.1-2.744.182s-2.567.172-2.618.2a.392.392,0,0,0,0,.618c.122.091.182.086,2.557-.061a39.949,39.949,0,0,0,4.607-.359,13.367,13.367,0,0,0,3.787-1.549,10.97,10.97,0,0,1,2.5-1.129.813.813,0,0,1,.734,1.18c-.1.213-.273.329-3.083,2.162-1.635,1.068-3.1,1.995-3.251,2.061a3.994,3.994,0,0,1-.532.167c-.354.071-8.552.861-8.947.861a3.028,3.028,0,0,1-.613-.076c-.157-.04-1.291-.521-2.516-1.073l-2.228-1v-.42c0-.385-.01-.435-.127-.547a.324.324,0,0,0-.506,0l-.127.122v1.129c0,.942-.015,1.149-.081,1.246-.076.111-.1.111-1.109.111s-1.033,0-1.109-.111-.081-.618-.081-4.577v-4.471l.132-.1c.127-.1.2-.106,1.058-.106S2.881-241.235,3.008-241.134Z" transform="translate(0 -240.12)" fill="#7e7e7e"/>
  </g>
</svg>
