<svg xmlns="http://www.w3.org/2000/svg" width="18.178" height="18.179" viewBox="0 0 18.178 18.179">
  <path id="phone-Light_1_" d="M751.622,653.032a3.151,3.151,0,0,0-.072-.319,1.408,1.408,0,0,0-1.135-.988l-4.145-.69a1.438,1.438,0,0,0-1.37.525c-.049.061-.095.124-.139.188a.52.52,0,0,1-.642.212,9.431,9.431,0,0,1-4.9-4.906.515.515,0,0,1,.209-.638c.085-.058.167-.12.249-.185a1.449,1.449,0,0,0,.518-1.35l-.641-4.071a1.424,1.424,0,0,0-.957-1.14,3.437,3.437,0,0,0-.453-.114,3.861,3.861,0,0,0-3.2.89,4.1,4.1,0,0,0-1.432,3.229,14.394,14.394,0,0,0,14,14h.111a4.089,4.089,0,0,0,3.1-1.426A3.893,3.893,0,0,0,751.622,653.032Zm-1.634,2.6a3.094,3.094,0,0,1-2.463,1.093,13.434,13.434,0,0,1-13.067-13.068,3.142,3.142,0,0,1,1.1-2.477,2.925,2.925,0,0,1,1.908-.718,2.8,2.8,0,0,1,.5.045,2.378,2.378,0,0,1,.32.079.472.472,0,0,1,.313.38l.642,4.071a.492.492,0,0,1-.174.456c-.059.049-.122.095-.186.138a1.465,1.465,0,0,0-.547,1.81,10.385,10.385,0,0,0,5.4,5.4,1.472,1.472,0,0,0,1.814-.551c.032-.046.065-.092.1-.137a.479.479,0,0,1,.46-.173l4.145.69a.451.451,0,0,1,.37.3,2.022,2.022,0,0,1,.05.224A2.933,2.933,0,0,1,749.988,655.629Z" transform="translate(-733.5 -639.499)" fill="#02814c"/>
</svg>
