<svg xmlns="http://www.w3.org/2000/svg" width="28.135" height="21.099" viewBox="0 0 28.135 21.099">
  <g id="debit-cards" transform="translate(0.175 447.012)">
    <path id="Path_75683" data-name="Path 75683" d="M6.636-446.86a1.752,1.752,0,0,0-.366.219c-.388.312-.432.432-.82,2.308-.2.963-.377,1.794-.388,1.843-.027.093-.17.1-2.046.1H1l-.29.153a1.468,1.468,0,0,0-.706.82c-.077.279-.077,14.127,0,14.406a1.437,1.437,0,0,0,.706.82l.3.153H11.269c9.812,0,10.271-.005,10.479-.1a1.321,1.321,0,0,0,.684-.634c.066-.137.148-.246.175-.246s.312.055.624.12a1.637,1.637,0,0,0,.87.049,1.308,1.308,0,0,0,.913-.716c.115-.235.443-1.734,1.553-7.083,1.5-7.252,1.466-7.05,1.231-7.509a1.618,1.618,0,0,0-.738-.662c-.142-.049-4.25-.9-15.265-3.183l-2.215-.459C7.232-446.963,7.008-446.991,6.636-446.86Zm10.31,2.609c5.376,1.116,9.845,2.051,9.932,2.084a.746.746,0,0,1,.383.487,13.553,13.553,0,0,1-.35,1.942c-.016.011-.859-.153-1.881-.361s-1.991-.4-2.144-.437l-.29-.055v-.29a1.426,1.426,0,0,0-.777-1.367l-.284-.142h-7.7l-2.275-.465c-4.168-.859-5.447-1.127-5.469-1.149a14.869,14.869,0,0,1,.4-1.87.738.738,0,0,1,.552-.4C7.112-446.274,11.564-445.361,16.946-444.251ZM8.08-442.883c1.17.241,2.155.448,2.182.459s-.974.027-2.237.027l-2.286.005.038-.208a6.215,6.215,0,0,1,.159-.722C5.947-443.321,6.91-443.124,8.08-442.883Zm13.58,1.335a.969.969,0,0,1,.224.356c.071.268.071,13.69,0,13.958a.969.969,0,0,1-.224.355l-.164.159-10.146.016c-11.409.011-10.435.049-10.638-.394-.1-.213-.1-.525-.1-7.116s.005-6.9.1-7.116c.2-.443-.777-.4,10.627-.388l10.156.011Zm4.7,2.417.4.088-.033.2c-.016.115-.109.574-.2,1.023l-.17.826-1.881-.361-1.881-.355v-2.193l1.685.345C25.2-439.378,26.14-439.181,26.364-439.131Zm-1.881,2.461c.9.17,1.663.328,1.685.35.055.049-1.635,8.22-1.75,8.466a.662.662,0,0,1-.613.35,6.834,6.834,0,0,1-.689-.109l-.492-.1-.016-4.665-.011-4.66.12.027C22.787-437,23.58-436.845,24.483-436.67Z" transform="translate(0)" fill="#02814c" stroke="#02814c" stroke-width="0.25"/>
    <path id="Path_75684" data-name="Path 75684" d="M267-328.508v.492h.656V-329H267Z" transform="translate(-252.444 -111.477)" fill="#02814c" stroke="#02814c" stroke-width="0.25"/>
    <path id="Path_75685" data-name="Path 75685" d="M292-328.508v.492h.656V-329H292Z" transform="translate(-276.077 -111.477)" fill="#02814c" stroke="#02814c" stroke-width="0.25"/>
    <path id="Path_75686" data-name="Path 75686" d="M322-328.508v.492h.656V-329H322Z" transform="translate(-304.436 -111.477)" fill="#02814c" stroke="#02814c" stroke-width="0.25"/>
    <path id="Path_75687" data-name="Path 75687" d="M347-328.508v.492h.656V-329H347Z" transform="translate(-328.069 -111.477)" fill="#02814c" stroke="#02814c" stroke-width="0.25"/>
    <path id="Path_75688" data-name="Path 75688" d="M52.4-313.918c-.345.148-.4.328-.4,1.291,0,.782.011.864.115,1,.219.279.345.306,1.406.306.93,0,.99-.005,1.165-.126.29-.2.323-.306.323-1.214,0-1.28-.071-1.34-1.515-1.34A3.926,3.926,0,0,0,52.4-313.918Zm1.942,1.269.016.673h-1.7v-.645a3.432,3.432,0,0,1,.038-.689,6.042,6.042,0,0,1,.831-.022l.8.016Z" transform="translate(-49.203 -125.656)" fill="#02814c" stroke="#02814c" stroke-width="0.25"/>
    <path id="Path_75689" data-name="Path 75689" d="M34.916-152.755l.016.345h.984v-.656l-.509-.016L34.9-153.1Z" transform="translate(-33.038 -277.756)" fill="#02814c" stroke="#02814c" stroke-width="0.25"/>
    <path id="Path_75690" data-name="Path 75690" d="M64.916-152.661l.016.345.481.016.476.016V-153H64.9Z" transform="translate(-61.398 -277.851)" fill="#02814c" stroke="#02814c" stroke-width="0.25"/>
    <path id="Path_75691" data-name="Path 75691" d="M94.916-152.661l.016.345h.984l.016-.345L95.95-153H94.9Z" transform="translate(-89.757 -277.851)" fill="#02814c" stroke="#02814c" stroke-width="0.25"/>
    <path id="Path_75692" data-name="Path 75692" d="M124.916-152.755l.016.345h.984v-.656l-.509-.016-.509-.016Z" transform="translate(-118.116 -277.756)" fill="#02814c" stroke="#02814c" stroke-width="0.25"/>
    <path id="Path_75693" data-name="Path 75693" d="M155.113-152.923a1.178,1.178,0,0,0-.011.339l.016.268h.984l.016-.345.016-.339h-.5C155.266-153,155.134-152.984,155.113-152.923Z" transform="translate(-146.661 -277.851)" fill="#02814c" stroke="#02814c" stroke-width="0.25"/>
    <path id="Path_75694" data-name="Path 75694" d="M35-111.672v.328h7.6V-112H35Z" transform="translate(-33.133 -316.608)" fill="#02814c" stroke="#02814c" stroke-width="0.25"/>
  </g>
</svg>
