<svg xmlns="http://www.w3.org/2000/svg" width="19" height="19" viewBox="0 0 19 19">
  <path id="trash-Light_1_" d="M656,354.5h-3.559a1.5,1.5,0,0,1-1.423-1.026l-.316-.949a1.5,1.5,0,0,0-1.423-1.025H644.72a1.5,1.5,0,0,0-1.423,1.025l-.315.949a1.5,1.5,0,0,1-1.423,1.026H638a.5.5,0,0,0,0,1h1.532l.782,11.733a3.509,3.509,0,0,0,3.492,3.267h6.387a3.509,3.509,0,0,0,3.492-3.267l.782-11.733H656a.5.5,0,0,0,0-1Zm-11.754-1.658a.5.5,0,0,1,.475-.342h4.559a.5.5,0,0,1,.474.342l.316.949a2.51,2.51,0,0,0,.372.709h-6.884a2.512,2.512,0,0,0,.373-.709Zm8.442,14.324a2.505,2.505,0,0,1-2.494,2.333h-6.387a2.505,2.505,0,0,1-2.494-2.333l-.778-11.667h1.024a2.573,2.573,0,0,0,.317-.025.471.471,0,0,0,.125.025h10a.479.479,0,0,0,.125-.025,2.541,2.541,0,0,0,.317.025h1.024ZM649.5,360v5a.5.5,0,0,1-1,0v-5a.5.5,0,0,1,1,0Zm-4,0v5a.5.5,0,0,1-1,0v-5a.5.5,0,0,1,1,0Z" transform="translate(-637.5 -351.5)" fill="#41416e"/>
</svg>
