<svg xmlns="http://www.w3.org/2000/svg" width="21.904" height="16.012" viewBox="0 0 21.904 16.012">
  <g id="delivery-truck" transform="translate(0 -68.867)">
    <g id="Group_99719" data-name="Group 99719" transform="translate(0 68.867)">
      <g id="Group_99718" data-name="Group 99718" transform="translate(0 0)">
        <path id="Path_70943" data-name="Path 70943" d="M17.733,73.986H16.354l.415-4.771c0-.009,0-.017,0-.026v0h0a.321.321,0,0,0-.193-.294h0l-.022-.008-.008,0-.019,0-.013,0-.017,0-.016,0h-6.6a.321.321,0,1,0,0,.642H16.1l-.639,7.332v0l-.161,1.85H4.151l.186-1.925H6.46a.321.321,0,1,0,0-.642H4.4l.394-4.064H8.172a.321.321,0,1,0,0-.642H4.855l.185-1.911H8.6a.321.321,0,1,0,0-.642H4.749a.321.321,0,0,0-.313.253v0c0,.008,0,.016,0,.024v.008h0l-.219,2.263H.321a.321.321,0,1,0,0,.642H4.148l-.394,4.064H2.61a.321.321,0,1,0,0,.642H3.692L3.478,78.98h0L3.146,82.4h0s0,.009,0,.013,0,.012,0,.018h0c0,.008,0,.016,0,.025s0,.005,0,.008,0,.016,0,.025V82.5c0,.006,0,.012,0,.018l0,.013v0a.321.321,0,0,0,.076.126l0,0,.011.01a.319.319,0,0,0,.074.051l.017.008.005,0,.024.009h0l.029.007h0l.028,0h0l.031,0H4.895a2.442,2.442,0,0,0,4.843,0h5.147a2.442,2.442,0,0,0,4.843,0h1.429l.032,0h.006l.025,0,.01,0,.019,0,.012,0,.016-.006.013-.006.014-.007.013-.007.013-.008.012-.008.013-.009.01-.008.013-.012.009-.008.013-.014.007-.008.013-.018,0-.006.015-.024v0c0-.009.009-.018.013-.027l0-.008.007-.02,0-.014,0-.016s0-.01,0-.015,0-.009,0-.013c.014-.109.265-2.125.377-3.428v0c.032-.376.053-.692.053-.886A4.176,4.176,0,0,0,17.733,73.986Zm-1.435.642h1.313l-.168,1.925H16.13ZM7.316,84.237a1.8,1.8,0,1,1,1.8-1.8A1.8,1.8,0,0,1,7.316,84.237Zm9.989,0a1.8,1.8,0,1,1,1.8-1.8A1.8,1.8,0,0,1,17.305,84.237Zm3.567-2.122H19.727a2.442,2.442,0,0,0-4.843,0H9.737a2.442,2.442,0,0,0-4.843,0H3.819l.269-2.781H15.595l.032,0h.006l.025,0,.011,0,.019,0,.012,0,.016-.006.013-.006.014-.007.013-.007.013-.008.012-.008.012-.009.011-.009.012-.011.01-.01.011-.012.008-.01.01-.014.007-.011.009-.015.006-.011.007-.015.006-.012.006-.015,0-.014,0-.015,0-.015c0-.005,0-.01,0-.015s0-.011,0-.016v0l.161-1.846h1.658a2.3,2.3,0,0,1,1.9,1.049,2.633,2.633,0,0,0,1.555,1.063C21.09,80.293,20.939,81.56,20.872,82.115Zm.367-3.452a2.1,2.1,0,0,1-1.126-.841,3.013,3.013,0,0,0-2.027-1.25l.166-1.906a3.535,3.535,0,0,1,3.011,3.491C21.263,78.278,21.254,78.453,21.238,78.663Z" transform="translate(0 -68.867)" fill="#02814c"/>
      </g>
    </g>
    <g id="Group_99721" data-name="Group 99721" transform="translate(6.14 81.259)">
      <g id="Group_99720" data-name="Group 99720" transform="translate(0 0)">
        <path id="Path_70944" data-name="Path 70944" d="M144.685,358.524a1.177,1.177,0,1,0,1.177,1.177A1.178,1.178,0,0,0,144.685,358.524Zm0,1.711a.535.535,0,1,1,.535-.535A.535.535,0,0,1,144.685,360.235Z" transform="translate(-143.508 -358.524)" fill="#02814c"/>
      </g>
    </g>
    <g id="Group_99723" data-name="Group 99723" transform="translate(16.129 81.259)">
      <g id="Group_99722" data-name="Group 99722" transform="translate(0 0)">
        <path id="Path_70945" data-name="Path 70945" d="M378.173,358.524a1.177,1.177,0,1,0,1.176,1.177A1.178,1.178,0,0,0,378.173,358.524Zm0,1.711a.535.535,0,1,1,.535-.535A.535.535,0,0,1,378.173,360.235Z" transform="translate(-376.996 -358.524)" fill="#02814c"/>
      </g>
    </g>
    <g id="Group_99725" data-name="Group 99725" transform="translate(1.148 73.986)">
      <g id="Group_99724" data-name="Group 99724" transform="translate(0 0)">
        <path id="Path_70946" data-name="Path 70946" d="M28.724,188.527H27.155a.321.321,0,1,0,0,.642h1.569a.321.321,0,1,0,0-.642Z" transform="translate(-26.834 -188.527)" fill="#02814c"/>
      </g>
    </g>
  </g>
</svg>
