<svg xmlns="http://www.w3.org/2000/svg" width="18.29" height="16.543" viewBox="0 0 18.29 16.543">
  <g id="package_2_" data-name="package (2)" transform="translate(0 -24.45)">
    <g id="Group_99742" data-name="Group 99742" transform="translate(0 24.45)">
      <path id="Path_70983" data-name="Path 70983" d="M18.29,26.713s0,0,0-.006,0-.016,0-.024v-.009c0-.007,0-.014,0-.021l0-.008c0-.008,0-.015-.007-.022v0l-.727-1.861a.482.482,0,0,0-.452-.309H15.77a.261.261,0,0,0,0,.522h1.3l.578,1.481H12.178l-.343-1.481h2.02a.261.261,0,0,0,0-.522H3.289a.482.482,0,0,0-.452.309l-.727,1.86v0c0,.007-.005.015-.007.022l0,.008c0,.007,0,.014,0,.021v.009c0,.008,0,.016,0,.024s0,0,0,.006h0v3.837a.261.261,0,1,0,.522,0V26.975H8.15v3.97a.4.4,0,0,0,.657.3l1.383-1.225,1.383,1.225a.4.4,0,0,0,.657-.3v-3.97h5.536V38.69a.34.34,0,0,1-.34.34H12.639s0-.006,0-.009c0-.023,0-.047,0-.07a.94.94,0,0,0,1.106-1.273c-.009-.022-.019-.043-.03-.064l-.006-.011q-.016-.03-.033-.058l-.007-.011c-.012-.019-.025-.038-.039-.057h0c-.014-.018-.028-.036-.043-.053l-.008-.009q-.022-.025-.046-.048l-.009-.009c-.017-.016-.034-.031-.051-.045h0c-.017-.014-.036-.027-.054-.04l-.01-.007-.057-.035,0,0a.94.94,0,0,0-.176-1.541q-.041-.022-.085-.039L9.014,33.987l1.892-.586a.858.858,0,0,0,.565-1.07.839.839,0,0,0-.287-.414.879.879,0,0,0-.721-.169h0c-.014,0-1.465.329-2.98.625l-.2.038-.153.029-.043.008-.257.048-.1.018a11.873,11.873,0,0,1-2.585.337H4.131l-.022-.005-.043-.017.053-.131a.517.517,0,0,0,0-.4.526.526,0,0,0-.049-.09.516.516,0,0,0-.234-.189l-1.4-.572a.52.52,0,0,0-.678.285L.038,35.939a.521.521,0,0,0,.285.678l1.4.572A.52.52,0,0,0,2.4,36.9l.013-.032L2.74,37h0a2.869,2.869,0,0,1,.841.529q.067.061.131.126t.123.134l.058.07a3.394,3.394,0,0,0,1.363,1.017l.364.148H2.954a.34.34,0,0,1-.34-.34v-.661a.261.261,0,1,0-.522,0v.661a.863.863,0,0,0,.862.862H6.9l3.364,1.372a.939.939,0,0,0,1.289-.971.97.97,0,0,0,.521-.069.931.931,0,0,0,.4-.332h4.948a.863.863,0,0,0,.862-.862V26.714ZM9.083,24.972H11.3l.343,1.481H8.74ZM8.2,26.453H2.736l.578-1.481H8.547Zm3.505,4.21h0L10.453,29.55a.4.4,0,0,0-.524,0L8.673,30.663V26.975h3.036ZM1.921,36.7l-1.4-.57,1.713-4.2,1.4.57Zm10.434,1.576-.3-.122h0L8.933,36.885a.261.261,0,0,0-.2.484l3.122,1.273.038.018.01.006.025.015.011.008.021.016.012.011.018.016.011.012.016.017.011.014.013.018.01.016.011.018.008.017.009.018.007.018.007.019c0,.006,0,.013.005.019s0,.013.005.019,0,.013,0,.02,0,.013,0,.02,0,.013,0,.02,0,.013,0,.02,0,.013,0,.02,0,.014,0,.02,0,.013,0,.019,0,.014,0,.021,0,.013,0,.019,0,.014,0,.021l-.006.018c0,.007,0,.014-.007.021l-.006.014v0a.406.406,0,0,1-.214.212.442.442,0,0,1-.34,0l-.553-.226-.008,0-.008,0L8.42,38.142a.261.261,0,0,0-.2.484l2.539,1.035.008,0,.007,0a.417.417,0,0,1-.315.773L7.051,39.049h0l-1.6-.651a2.869,2.869,0,0,1-1.152-.86,3.392,3.392,0,0,0-1.363-1.017h0l-.324-.132.645-1.582.61-1.495.045.018a.679.679,0,0,0,.265.048,6.771,6.771,0,0,0,1.14-.1c.409-.058.911-.141,1.5-.249l.043-.008.083-.015L7.008,33l.075-.014.081-.015.066-.012.1-.019.052-.01.158-.031c1.51-.294,2.967-.62,3.032-.635l.02,0a.343.343,0,0,1,.38.229.335.335,0,0,1-.22.418l-2.589.8a.261.261,0,0,0-.021.491l4.741,1.933a.418.418,0,0,1-.155.8h0l-.038,0-.011,0-.029,0-.018,0-.022-.005-.022-.008-.017-.006L9.445,35.629a.261.261,0,0,0-.2.484l3.785,1.543a.42.42,0,0,1,.073.038.418.418,0,0,1,.17.467q-.006.02-.014.039a.4.4,0,0,1-.073.118.413.413,0,0,1-.042.041l-.007.006a.42.42,0,0,1-.422.064Z" transform="translate(0 -24.45)" fill="#02814c"/>
    </g>
  </g>
</svg>
