<svg xmlns="http://www.w3.org/2000/svg" width="17.227" height="17.229" viewBox="0 0 17.227 17.229">
  <path id="globe-Light_1_" d="M558.231,357.243a8.555,8.555,0,0,0-6.883-5.658,8.929,8.929,0,0,0-2.468,0A8.554,8.554,0,0,0,542,357.239a8.538,8.538,0,0,0,0,5.745,8.555,8.555,0,0,0,6.883,5.658,8.876,8.876,0,0,0,2.467,0,8.554,8.554,0,0,0,6.881-5.654,8.544,8.544,0,0,0,0-5.745Zm-1.114-.3h-3.281a14.531,14.531,0,0,0-1.624-4.245A7.632,7.632,0,0,1,557.117,356.941Zm-3.829,3.173a13.781,13.781,0,0,1-.2,2.268h-5.945a12.865,12.865,0,0,1,0-4.534h5.946A13.823,13.823,0,0,1,553.288,360.114Zm-2.271-7.645a13.675,13.675,0,0,1,1.888,4.472h-5.581a13.676,13.676,0,0,1,1.887-4.472,6.551,6.551,0,0,1,1.806,0Zm-3,.227a14.532,14.532,0,0,0-1.625,4.245h-3.281A7.627,7.627,0,0,1,548.017,352.7Zm-5.259,5.152h3.469a13.431,13.431,0,0,0,0,4.534H542.76a7.5,7.5,0,0,1,0-4.534Zm.355,5.441h3.281a14.527,14.527,0,0,0,1.624,4.243A7.626,7.626,0,0,1,543.113,363.289Zm6.1,4.469a13.675,13.675,0,0,1-1.887-4.469h5.58a13.673,13.673,0,0,1-1.887,4.469A7.917,7.917,0,0,1,549.211,367.758Zm3-.226a14.528,14.528,0,0,0,1.624-4.243h3.281A7.631,7.631,0,0,1,552.211,367.532Zm5.258-5.15H554a13.429,13.429,0,0,0,0-4.534h3.468a7.488,7.488,0,0,1,0,4.534Z" transform="translate(-541.5 -351.5)" fill="#02814c"/>
</svg>
