<svg xmlns="http://www.w3.org/2000/svg" width="20.043" height="20.043" viewBox="0 0 20.043 20.043">
  <g id="location_9_" data-name="location (9)" transform="translate(-13.75 -13.75)">
    <path id="Path_70996" data-name="Path 70996" d="M68.986,31.685a2.435,2.435,0,1,0-2.435-2.435,2.435,2.435,0,0,0,2.435,2.435Zm0-4.172a1.737,1.737,0,1,1-1.737,1.737,1.737,1.737,0,0,1,1.737-1.737Z" transform="translate(-42.271 -10.459)" fill="#02814c"/>
    <path id="Path_70997" data-name="Path 70997" d="M33.444,33.1H29.635V25.28l1.023.542a.349.349,0,1,0,.327-.617l-2.25-1.191c1.369-1.477,3.022-3.6,3.022-5.223a5.041,5.041,0,0,0-10.082,0A5.866,5.866,0,0,0,22.9,21.8l-6.342,3.4a.349.349,0,1,0,.33.615l1.014-.544V33.1H14.1a.349.349,0,0,0,0,.7H33.444a.349.349,0,1,0,0-.7ZM26.716,14.448a4.348,4.348,0,0,1,4.343,4.343c0,.973-.78,2.391-2.256,4.1a28,28,0,0,1-2.087,2.152,28.04,28.04,0,0,1-2.086-2.152c-1.476-1.708-2.256-3.126-2.256-4.1A4.348,4.348,0,0,1,26.716,14.448ZM18.6,24.9l4.712-2.528a26.144,26.144,0,0,0,3.173,3.4.349.349,0,0,0,.461,0c.064-.056.6-.531,1.288-1.237l.7.371V33.1H26v-3.57a.349.349,0,0,0-.349-.349H21.882a.349.349,0,0,0-.349.349V33.1H18.6ZM25.305,33.1H22.231V29.874h3.074Z" fill="#02814c"/>
  </g>
</svg>
