<svg xmlns="http://www.w3.org/2000/svg" width="14" height="15" viewBox="0 0 14 15">
  <path id="Log_out" data-name="Log out" d="M5.542,15H1.167A1.178,1.178,0,0,1,0,13.813V1.188A1.179,1.179,0,0,1,1.167,0H5.542A3.389,3.389,0,0,1,8.9,3.416v.743a.437.437,0,1,1-.875,0V3.416A2.506,2.506,0,0,0,5.542.89H1.167a.3.3,0,0,0-.292.3V13.813a.3.3,0,0,0,.292.3H5.542a2.505,2.505,0,0,0,2.479-2.525v-.743a.437.437,0,1,1,.875,0v.743A3.389,3.389,0,0,1,5.542,15Zm5.41-4.407a.43.43,0,0,1-.309-.131.449.449,0,0,1,0-.63L12.5,7.945H4.813a.445.445,0,0,1,0-.89h7.7L10.658,5.168a.454.454,0,0,1,0-.63.434.434,0,0,1,.619,0l2.59,2.639a.41.41,0,0,1,.08.124.427.427,0,0,1-.115.54L11.26,10.462A.43.43,0,0,1,10.952,10.593Z" fill="#02814c"/>
</svg>
