<svg xmlns="http://www.w3.org/2000/svg" width="20.646" height="18.674" viewBox="0 0 20.646 18.674">
  <g id="package_2_" data-name="package (2)" transform="translate(0 -24.45)">
    <g id="Group_99742" data-name="Group 99742" transform="translate(0 24.45)">
      <path id="Path_70983" data-name="Path 70983" d="M20.646,27s0,0,0-.007,0-.018,0-.027v-.01c0-.008,0-.016,0-.024l0-.009c0-.009,0-.017-.008-.025l0,0-.82-2.1a.545.545,0,0,0-.51-.348H17.8a.295.295,0,0,0,0,.59h1.465l.653,1.671H13.747L13.36,25.04h2.28a.295.295,0,0,0,0-.59H3.713a.544.544,0,0,0-.51.348l-.82,2.1,0,0c0,.008-.006.017-.008.025l0,.009c0,.008,0,.016,0,.024v.01c0,.009,0,.018,0,.027s0,0,0,.007h0v4.331a.295.295,0,1,0,.59,0V27.3H9.2v4.481a.446.446,0,0,0,.742.334L11.5,30.732l1.561,1.383a.446.446,0,0,0,.742-.334V27.3h6.249V40.524a.384.384,0,0,1-.384.384H14.267s0-.007,0-.01c0-.026,0-.053,0-.079a1.061,1.061,0,0,0,1.249-1.437c-.01-.025-.022-.048-.034-.072l-.007-.013q-.018-.034-.038-.066l-.008-.012c-.014-.022-.029-.043-.044-.064h0c-.015-.02-.032-.04-.049-.059l-.009-.011q-.025-.028-.052-.054l-.011-.01c-.019-.018-.038-.035-.058-.051l0,0c-.02-.016-.04-.031-.061-.045l-.011-.008q-.031-.021-.064-.04l-.005,0a1.061,1.061,0,0,0-.2-1.74q-.046-.024-.1-.045l-4.588-1.871,2.136-.661a.969.969,0,0,0,.638-1.208.947.947,0,0,0-.323-.467.993.993,0,0,0-.814-.191h0c-.016,0-1.654.372-3.364.705l-.223.043-.172.033L8,33.48l-.29.054-.112.021a13.4,13.4,0,0,1-2.918.38H4.663l-.025-.006-.048-.02.06-.148a.583.583,0,0,0,0-.449.594.594,0,0,0-.055-.1.583.583,0,0,0-.264-.214l-1.583-.646a.587.587,0,0,0-.765.322L.043,37.419a.588.588,0,0,0,.322.765l1.584.646a.587.587,0,0,0,.765-.322l.015-.036.365.149h0a3.238,3.238,0,0,1,.949.6q.076.069.148.142t.138.152l.066.079A3.831,3.831,0,0,0,5.933,40.74l.411.167H3.335a.384.384,0,0,1-.384-.384v-.746a.295.295,0,1,0-.59,0v.746a.974.974,0,0,0,.973.973H7.79l3.8,1.549a1.06,1.06,0,0,0,1.455-1.1,1.1,1.1,0,0,0,.588-.078,1.051,1.051,0,0,0,.456-.375h5.586a.974.974,0,0,0,.973-.973V27.006ZM10.253,25.04h2.5l.387,1.671H9.866Zm-.992,1.671H3.088l.653-1.671H9.648Zm3.957,4.752h0L11.8,30.207a.447.447,0,0,0-.592,0L9.79,31.463V27.3h3.427ZM2.168,38.283.59,37.639,2.524,32.9,4.1,33.54Zm11.778,1.779-.338-.138h0l-3.524-1.437a.295.295,0,0,0-.223.546l3.524,1.437.043.02.011.007.029.017.013.009.024.018.013.012.02.018.013.014.018.019.012.016.015.02.011.018.012.02.01.019.01.021.008.021.008.021c0,.007,0,.014.006.022s0,.014.006.021,0,.015,0,.022,0,.015,0,.022,0,.015,0,.022,0,.015,0,.022,0,.015,0,.022,0,.015,0,.023,0,.015,0,.022,0,.016,0,.024,0,.014,0,.021,0,.016-.005.024,0,.014-.007.021,0,.016-.008.024l-.007.016v0a.458.458,0,0,1-.242.239.5.5,0,0,1-.384,0l-.624-.255-.009,0-.009,0L9.505,39.906a.295.295,0,0,0-.223.546l2.866,1.169.009,0,.008,0a.471.471,0,1,1-.356.873L7.959,40.93h0l-1.8-.735a3.239,3.239,0,0,1-1.3-.971,3.829,3.829,0,0,0-1.538-1.148h0l-.366-.149.728-1.786.688-1.688.051.021a.766.766,0,0,0,.3.054A7.644,7.644,0,0,0,6,34.419c.462-.065,1.029-.16,1.69-.281l.049-.009.094-.017L7.91,34.1,8,34.081l.091-.017.074-.014.114-.022.059-.011.178-.034c1.7-.331,3.349-.7,3.423-.717l.022,0a.387.387,0,0,1,.429.258.378.378,0,0,1-.249.472l-2.923.9a.295.295,0,0,0-.024.555l5.351,2.182a.471.471,0,0,1-.175.908h0l-.043,0-.013,0-.033,0-.02,0-.024-.006-.025-.009-.02-.007-3.524-1.437a.295.295,0,0,0-.223.546l4.273,1.742a.474.474,0,0,1,.082.043.472.472,0,0,1,.192.527q-.007.022-.016.044a.457.457,0,0,1-.083.133.466.466,0,0,1-.047.047l-.008.007a.474.474,0,0,1-.477.072Z" transform="translate(0 -24.45)" fill="#02814c"/>
    </g>
  </g>
</svg>
