<svg xmlns="http://www.w3.org/2000/svg" width="14" height="16" viewBox="0 0 14 16">
  <path id="User_Icon" data-name="User Icon" d="M12.226,16H1.774a1.715,1.715,0,0,1-1.407-.766,2.048,2.048,0,0,1-.318-1.617A8.3,8.3,0,0,1,1.864,9.953a7.049,7.049,0,0,1,3.161-2.11,4.34,4.34,0,0,1-1.813-3.61A4.034,4.034,0,0,1,7,0a4.033,4.033,0,0,1,3.787,4.233,4.34,4.34,0,0,1-1.812,3.61,7.05,7.05,0,0,1,3.161,2.11,8.3,8.3,0,0,1,1.815,3.662,2.048,2.048,0,0,1-.318,1.617A1.714,1.714,0,0,1,12.226,16ZM7,8.465A6.491,6.491,0,0,0,.856,13.838a1.03,1.03,0,0,0,.165.822.93.93,0,0,0,.753.411H12.226a.932.932,0,0,0,.753-.411,1.032,1.032,0,0,0,.165-.822A6.492,6.492,0,0,0,7,8.465ZM7,.929a3.148,3.148,0,0,0-2.956,3.3A3.147,3.147,0,0,0,7,7.536a3.147,3.147,0,0,0,2.955-3.3A3.148,3.148,0,0,0,7,.929Z" transform="translate(0)" fill="#02814c"/>
</svg>
