<svg xmlns="http://www.w3.org/2000/svg" width="16.82" height="17.879" viewBox="0 0 16.82 17.879">
  <g id="Iconly_Light_Setting" data-name="Iconly/Light/Setting" transform="translate(-2.673 -1.778)">
    <g id="Setting" transform="translate(3.279 2.278)">
      <path id="Path_33946" d="M15.391,4.694l-.547-.948a1.68,1.68,0,0,0-2.291-.619h0a1.672,1.672,0,0,1-2.291-.595,1.607,1.607,0,0,1-.225-.8h0A1.68,1.68,0,0,0,8.358,0h-1.1A1.672,1.672,0,0,0,5.586,1.68h0a1.68,1.68,0,0,1-1.68,1.656,1.607,1.607,0,0,1-.8-.225h0a1.68,1.68,0,0,0-2.291.619l-.587.964A1.68,1.68,0,0,0,.835,6.985h0a1.68,1.68,0,0,1,.84,1.455,1.68,1.68,0,0,1-.84,1.455h0a1.672,1.672,0,0,0-.611,2.283h0l.555.956a1.68,1.68,0,0,0,2.291.651h0a1.664,1.664,0,0,1,2.283.611,1.607,1.607,0,0,1,.225.8h0a1.68,1.68,0,0,0,1.68,1.68h1.1a1.68,1.68,0,0,0,1.68-1.672h0a1.672,1.672,0,0,1,1.68-1.68,1.712,1.712,0,0,1,.8.225h0a1.68,1.68,0,0,0,2.291-.611h0l.579-.964a1.672,1.672,0,0,0-.611-2.291h0A1.672,1.672,0,0,1,14.17,7.6a1.648,1.648,0,0,1,.611-.611h0A1.68,1.68,0,0,0,15.391,4.7h0Z" transform="translate(0 0)" fill="none" stroke="#02814c" stroke-linecap="round" stroke-linejoin="round" stroke-miterlimit="10" stroke-width="1"/>
      <circle id="Ellipse_737" cx="2.315" cy="2.315" r="2.315" transform="translate(5.497 6.125)" fill="none" stroke="#02814c" stroke-linecap="round" stroke-linejoin="round" stroke-miterlimit="10" stroke-width="1"/>
    </g>
  </g>
</svg>
